<svg width="18" height="17" viewBox="0 0 18 17" fill="none" xmlns="http://www.w3.org/2000/svg">
<g filter="url(#filter0_d_3808_129)">
<path d="M15.9891 14.0205L11.424 9.45547C12.1324 8.53965 12.5156 7.41992 12.5156 6.24219C12.5156 4.83242 11.9654 3.51055 10.9705 2.51387C9.97559 1.51719 8.6502 0.96875 7.24219 0.96875C5.83418 0.96875 4.50879 1.51895 3.51387 2.51387C2.51719 3.50879 1.96875 4.83242 1.96875 6.24219C1.96875 7.6502 2.51895 8.97559 3.51387 9.97051C4.50879 10.9672 5.83242 11.5156 7.24219 11.5156C8.41992 11.5156 9.53789 11.1324 10.4537 10.4258L15.0188 14.9891C15.0321 15.0025 15.048 15.0131 15.0655 15.0203C15.083 15.0276 15.1018 15.0313 15.1207 15.0313C15.1396 15.0313 15.1584 15.0276 15.1759 15.0203C15.1934 15.0131 15.2093 15.0025 15.2227 14.9891L15.9891 14.2244C16.0025 14.211 16.0131 14.1951 16.0203 14.1776C16.0276 14.1601 16.0313 14.1414 16.0313 14.1225C16.0313 14.1035 16.0276 14.0848 16.0203 14.0673C16.0131 14.0498 16.0025 14.0339 15.9891 14.0205V14.0205ZM10.0266 9.02656C9.28125 9.77012 8.29336 10.1797 7.24219 10.1797C6.19102 10.1797 5.20313 9.77012 4.45781 9.02656C3.71426 8.28125 3.30469 7.29336 3.30469 6.24219C3.30469 5.19102 3.71426 4.20137 4.45781 3.45781C5.20313 2.71426 6.19102 2.30469 7.24219 2.30469C8.29336 2.30469 9.28301 2.7125 10.0266 3.45781C10.7701 4.20313 11.1797 5.19102 11.1797 6.24219C11.1797 7.29336 10.7701 8.28301 10.0266 9.02656Z" fill="#8C8C8C"/>
<path d="M11.0285 9.14955L10.7592 9.49775L11.0705 9.80902L15.3836 14.1222L15.1209 14.3842L10.8072 10.0722L10.4963 9.76138L10.1483 10.0299C9.32031 10.6688 8.30985 11.0156 7.24219 11.0156C5.96498 11.0156 4.76872 10.5198 3.86773 9.61727L3.86742 9.61695C2.96609 8.71563 2.46875 7.51734 2.46875 6.24219C2.46875 4.96498 2.96453 3.76872 3.86711 2.86773L3.86742 2.86742C4.76875 1.96609 5.96703 1.46875 7.24219 1.46875C8.51772 1.46875 9.71572 1.96459 10.6166 2.86711C11.5185 3.77057 12.0156 4.96562 12.0156 6.24219C12.0156 7.30998 11.6687 8.32194 11.0285 9.14955ZM14.8695 14.6351C14.8696 14.6351 14.8696 14.635 14.8696 14.635L14.8695 14.6351ZM15.3718 14.635C15.372 14.6352 15.3722 14.6354 15.3724 14.6356L15.3722 14.6354L15.3718 14.635ZM15.9891 14.0205L15.8873 14.1224L15.8872 14.1223L15.9891 14.0205ZM15.8871 14.1224L15.8871 14.1224L15.8872 14.1225L15.6356 14.3742C15.6356 14.3741 15.6355 14.3741 15.6355 14.3741L15.8871 14.1225L15.8871 14.1225L15.8871 14.1224ZM10.3797 9.38053L10.3801 9.38012C11.2175 8.54273 11.6797 7.42588 11.6797 6.24219C11.6797 5.05816 11.2173 3.9434 10.3805 3.10468C9.54261 2.26477 8.42537 1.80469 7.24219 1.80469C6.05816 1.80469 4.9434 2.2671 4.10468 3.10384L4.10426 3.10426C3.26687 3.94165 2.80469 5.0585 2.80469 6.24219C2.80469 7.42622 3.2671 8.54097 4.10384 9.3797L4.10468 9.38053C4.9434 10.2173 6.05816 10.6797 7.24219 10.6797C8.42622 10.6797 9.54097 10.2173 10.3797 9.38053Z" stroke="black"/>
</g>
<defs>
<filter id="filter0_d_3808_129" x="-2.03125" y="0.96875" width="22.0626" height="22.0626" filterUnits="userSpaceOnUse" color-interpolation-filters="sRGB">
<feFlood flood-opacity="0" result="BackgroundImageFix"/>
<feColorMatrix in="SourceAlpha" type="matrix" values="0 0 0 0 0 0 0 0 0 0 0 0 0 0 0 0 0 0 127 0" result="hardAlpha"/>
<feOffset dy="4"/>
<feGaussianBlur stdDeviation="2"/>
<feComposite in2="hardAlpha" operator="out"/>
<feColorMatrix type="matrix" values="0 0 0 0 0 0 0 0 0 0 0 0 0 0 0 0 0 0 0.25 0"/>
<feBlend mode="normal" in2="BackgroundImageFix" result="effect1_dropShadow_3808_129"/>
<feBlend mode="normal" in="SourceGraphic" in2="effect1_dropShadow_3808_129" result="shape"/>
</filter>
</defs>
</svg>
